PathFileType	4	(X/Y/Z)	E:\Marcel_BSc\Ayumi_22_01_2025\22-01-2025\conv_dl_2.trc
DataRate	CameraRate	NumFrames	NumMarkers	Units	OrigDataRate	OrigDataStartFrame	OrigNumFrames
200.0	200.0	8	48	mm	200.0	2025	2314	
Frame#	Time	FHD			LBHD			RBHD			RBAR			LBAR			RSACR			LSACR			LASI			USACR			LTHI2			C7			CLAV			T10			RSHO			LSHO			LTHI1			LTHI3			LTIB1			LTIB2			LTIB3			LMMAL			LLMAL			LHEE			LMT1			LMT5			LMT3			RTHI1			RTHI2			RTHI3			RTIB1			RTIB3			RTIB2			RLMAL			RMMAL			RHEE			RMT5			RMT1			RMT3			LDUPA			LMUPA			LUUPA			LRAD			RUL			RRAD			RUFIN			RMUPA			RDUPA			RUUPA			
		X1	Y1	Z1	X2	Y2	Z2	X3	Y3	Z3	X4	Y4	Z4	X5	Y5	Z5	X6	Y6	Z6	X7	Y7	Z7	X8	Y8	Z8	X9	Y9	Z9	X10	Y10	Z10	X11	Y11	Z11	X12	Y12	Z12	X13	Y13	Z13	X14	Y14	Z14	X15	Y15	Z15	X16	Y16	Z16	X17	Y17	Z17	X18	Y18	Z18	X19	Y19	Z19	X20	Y20	Z20	X21	Y21	Z21	X22	Y22	Z22	X23	Y23	Z23	X24	Y24	Z24	X25	Y25	Z25	X26	Y26	Z26	X27	Y27	Z27	X28	Y28	Z28	X29	Y29	Z29	X30	Y30	Z30	X31	Y31	Z31	X32	Y32	Z32	X33	Y33	Z33	X34	Y34	Z34	X35	Y35	Z35	X36	Y36	Z36	X37	Y37	Z37	X38	Y38	Z38	X39	Y39	Z39	X40	Y40	Z40	X41	Y41	Z41	X42	Y42	Z42	X43	Y43	Z43	X44	Y44	Z44	X45	Y45	Z45	X46	Y46	Z46	X47	Y47	Z47	X48	Y48	Z48	
2025	10.115	34.827156	1594.3517	-610.6814	51.94569	1576.1259	-550.57574	75.755676	1567.6561	-681.98553	242.4874	239.26982	-1727.8208	209.55362	251.3226	494.75507	396.55722	978.12524	-648.06671	390.06018	979.93195	-574.93488				386.25568	989.09601	-612.01288	259.10754	560.36688	-425.80002	237.89435	1404.9344	-601.45685	114.87881	1307.4989	-619.47308	335.51526	1146.6935	-608.41217	167.08908	1367.8781	-779.14667	151.22539	1354.6268	-445.1871	298.68994	614.06299	-424.29315	307.52493	549.91888	-437.60541	278.90347	242.16158	-420.69308	329.13812	239.64839	-428.15259	297.80197	181.59575	-429.37912	284.55728	77.847237	-511.81482	306.39557	70.137497	-437.36246	343.79257	35.262157	-486.0152	146.31429	48.911453	-469.29807	175.1442	28.02528	-395.21231	149.4476	44.68417	-435.06573	322.78076	613.03497	-797.02814	282.30865	561.16956	-797.79346	330.81522	549.6012	-783.72345	297.63632	282.69156	-805.34692	316.57336	220.10417	-795.32977	346.60446	278.73929	-793.08063	315.13028	73.588409	-781.43445	275.67532	83.661217	-714.35767	349.8848	31.081844	-730.07495	180.28683	31.278896	-819.10571	152.28947	44.457664	-760.5885	159.42084	40.203606	-790.78174	273.15564	1204.8893	-327.61719	224.83737	1212.1089	-316.68643	225.01337	1264.1108	-351.01898	222.40924	949.27466	-118.79505	375.95389	1008.6373	-1098.6116	318.68634	985.33606	-1096.2539	324.21457	951.09003	-1154.9777	268.73517	1297.7344	-848.7312	287.94067	1252.7657	-887.02142	307.63318	1289.0447	-819.12305
2026	10.12	37.569759	1596.0347	-610.8894	54.575611	1577.7703	-550.70422	78.447144	1569.2117	-682.12366	242.435	239.24115	-1727.9092	209.5381	251.31941	494.75012	395.78754	977.42664	-648.0722	389.01108	979.66156	-575.0343				385.09647	989.18286	-611.98242	258.905	560.36023	-425.86224	239.88667	1405.4557	-601.64978	116.15934	1309.2117	-619.55768	335.47879	1146.6121	-608.42584	169.31403	1369.7565	-778.89563	152.92468	1356.9064	-445.43396	298.19815	614.21375	-424.45465	307.32205	550.14398	-437.81882	279.13531	242.34361	-420.65778	329.23431	239.70258	-428.25531	298.01004	181.59645	-429.35226	284.61273	77.897606	-511.76602	306.42764	70.099358	-437.32526	343.82025	35.235279	-485.98212	146.32802	48.988663	-469.28793	175.13689	28.042542	-395.21268	149.47424	44.799194	-435.01285	322.00974	613.31232	-796.76447	281.9194	561.15698	-797.60016	330.35956	549.84869	-783.45081	297.69275	282.75919	-805.1333	316.5928	220.13998	-795.1853	346.65964	278.76398	-792.87567	315.15448	73.590218	-781.3913	275.67105	83.621323	-714.30865	349.88449	31.058947	-730.05701	180.30157	31.28441	-819.08368	152.2726	44.445007	-760.56732	159.36929	40.152592	-790.75952	274.02179	1207.8748	-326.27826	225.89139	1215.9166	-315.11508	226.3674	1267.2705	-350.38187	221.87393	956.61786	-112.33846	376.17963	1014.2865	-1103.317	318.70694	991.57367	-1101.864	324.44946	958.17047	-1161.1464	270.5329	1299.8937	-848.79901	289.54739	1255.4771	-887.77881	309.10126	1290.1913	-818.96899
2027	10.125	40.270317	1597.6893	-611.05927	57.209335	1579.3323	-550.84326	81.091873	1570.7278	-682.29572	242.49855	239.27795	-1727.887	209.51776	251.31563	494.75818	394.34012	977.8924	-648.14771	387.96133	979.55963	-575.05042				384.03632	989.05334	-612.0321	258.67636	560.37378	-425.93747	241.84831	1406.0137	-601.81122	117.43027	1310.8412	-619.71185	335.39938	1146.5121	-608.44733	171.55974	1371.6318	-778.63025	154.69397	1358.8621	-445.80603	297.72906	614.39856	-424.60849	307.13901	550.3512	-437.97189	279.31177	242.36473	-420.69394	329.38672	239.72386	-428.32001	298.25012	181.72165	-429.25516	284.62854	77.937607	-511.7218	306.48538	70.056366	-437.31488	343.85541	35.216026	-485.95743	146.36226	49.180195	-468.95166	175.13948	28.060244	-395.2045	149.48927	44.880733	-434.99493	321.22791	613.4292	-796.53442	281.48303	561.01062	-797.28229	329.9632	550.46234	-783.5069	297.70233	282.78278	-804.95898	316.63019	220.17981	-795.07068	346.72766	279.02448	-792.91833	315.15402	73.59845	-781.36066	275.69006	83.63401	-714.30005	349.88516	31.072023	-730.05011	180.29597	31.292599	-819.07428	152.22559	44.431606	-760.54126	159.41182	40.241268	-790.77057	274.83734	1210.8358	-324.93124	226.97115	1219.6875	-313.54559	227.74126	1270.3688	-349.71649	221.34784	964.1535	-106.0489	376.38748	1019.9999	-1108.1155	318.69193	997.82782	-1107.4895	324.61655	965.40082	-1167.2682	272.31351	1302.0518	-848.87836	291.21329	1258.1125	-888.5802	310.57657	1291.201	-818.95508
2028	10.13	42.858158	1599.3979	-611.09528	59.644131	1581.0668	-550.89532	83.659073	1572.1815	-682.44983	242.39508	239.42877	-1727.7957	209.54428	251.31583	494.72577	393.21387	977.37872	-648.32751	386.98474	979.44324	-575.12994				383.03412	988.95776	-612.0459	258.43137	560.38678	-425.98074	243.78558	1406.511	-601.99042	118.69814	1312.4304	-619.76794	335.36887	1146.3981	-608.43488	173.69923	1373.4183	-778.3551	156.47731	1361.0802	-445.88608	297.25562	614.5918	-424.74432	306.96976	550.58209	-438.07654	279.54611	242.50758	-420.66925	329.60114	239.72746	-428.41327	298.32422	181.64169	-429.26898	284.66211	77.957947	-511.66428	306.52975	70.069611	-437.28152	343.85849	35.204956	-485.96002	146.37587	49.231533	-468.95508	175.14684	28.046196	-395.21072	149.50166	44.866859	-434.97729	320.47656	613.64612	-796.3161	280.89328	561.19141	-797.07092	329.5473	550.3465	-783.08185	297.75037	282.81451	-804.84387	316.66675	220.21858	-794.92627	346.75909	279.09598	-792.7193	315.18027	73.564301	-781.35699	275.65598	83.564064	-714.25153	349.89346	31.079105	-730.03809	180.28349	31.302977	-819.06866	152.23882	44.31712	-760.88501	159.41106	40.249424	-790.74878	275.67691	1213.7438	-323.55151	227.94856	1223.4108	-312.04053	229.07878	1273.4695	-349.11786	220.8423	971.70984	-99.822281	376.52338	1025.856	-1112.8707	318.64188	1004.3572	-1113.0059	324.71017	972.66602	-1173.3436	274.08817	1304.1078	-848.98645	292.8288	1260.7196	-889.3587	311.98871	1292.2389	-818.92047
2029	10.135	45.476944	1600.988	-611.18585	62.128117	1582.4818	-551.08044	86.227097	1573.5472	-682.60992	242.41891	239.4071	-1727.8148	209.50038	251.33533	494.75925	392.53192	977.33051	-648.125	385.95255	979.28265	-575.17126				382.03268	988.77051	-612.02521	258.15982	560.35022	-426.10431	245.69168	1406.9688	-602.13385	119.93329	1313.915	-619.88757	335.32382	1146.2566	-608.43713	175.79672	1375.1443	-778.03131	158.21037	1362.891	-446.2804	297.0715	615.10352	-424.74326	306.72562	550.77679	-438.21225	279.74243	242.70166	-420.63092	329.69629	239.7619	-428.51074	298.61261	181.49739	-429.85675	284.68854	77.942772	-511.63202	306.56454	70.059738	-437.27115	343.89786	35.224155	-485.96552	146.39297	49.240879	-468.93851	175.14386	28.047457	-395.20993	149.53064	44.881428	-435.00986	319.72806	613.88922	-796.16925	280.3963	561.16174	-796.86102	329.08411	550.57892	-782.94006	297.77383	282.83331	-804.72772	316.72424	220.2709	-794.82294	346.74454	278.93988	-792.349	315.20364	73.615234	-781.30255	275.69107	83.560532	-714.22015	349.89096	31.061441	-730.04395	180.28828	31.308596	-819.04907	152.24347	44.323013	-760.88318	159.3577	40.21027	-790.73395	276.48358	1216.6897	-322.15018	228.93881	1227.1458	-310.52692	230.40137	1276.4807	-348.49268	220.42354	979.38098	-93.666702	376.59579	1031.8405	-1117.6171	318.56335	1010.9647	-1118.786	324.74921	980.18494	-1179.3116	275.82733	1306.1575	-849.07562	294.39066	1263.3368	-890.11786	313.39468	1293.2264	-818.91736
2030	10.14	48.028225	1602.4429	-611.31677	64.702736	1583.8939	-551.11469	88.7379	1574.8805	-682.72797	242.45775	239.39314	-1727.8115	209.51962	251.34227	494.72714	391.15808	977.39825	-648.29004	384.97687	979.12238	-575.20093				380.95721	988.72028	-612.08478	257.83954	560.36121	-426.07251	247.60875	1407.442	-602.27399	121.17995	1315.3771	-620.00378	335.24362	1146.0741	-608.45801	177.91869	1376.7806	-777.74445	159.96317	1364.684	-446.71667	296.60995	615.2583	-424.87183	306.53656	550.97784	-438.30893	279.92584	242.811	-420.65399	329.91165	239.78203	-428.5817	298.71149	181.58217	-429.9014	284.68671	77.964478	-511.61856	306.58798	70.03064	-437.28821	343.91385	35.197338	-485.95731	146.40681	49.22263	-468.93369	175.15016	28.045004	-395.20468	149.54831	44.853535	-435.00034	319.05331	614.01239	-795.92639	279.90063	561.23688	-796.69904	328.63217	551.18134	-783.07562	297.75522	283.02951	-804.5545	316.75662	220.33807	-794.72699	346.78708	279.28607	-792.45422	315.21228	73.631371	-781.26666	275.70441	83.547981	-714.19965	349.9057	31.058178	-730.0274	180.29056	31.316172	-819.02692	152.23024	44.259899	-760.84033	159.32559	40.196625	-790.70837	277.26608	1219.6271	-320.74542	229.92146	1230.8884	-309.01907	231.96434	1279.0056	-348.44766	220.00456	987.12109	-87.583115	376.70401	1037.8199	-1122.3424	318.46814	1017.5691	-1123.9325	324.77292	987.66852	-1185.2505	277.56705	1308.1221	-849.18628	295.99948	1265.8779	-890.89581	314.73651	1294.2443	-818.96576
2031	10.145	50.592888	1603.8922	-611.39777	67.194069	1585.1932	-551.26062	91.200432	1576.1942	-682.84637	242.42516	239.37959	-1727.8116	209.52275	251.35075	494.73538	390.43811	976.68262	-648.29138	383.99652	978.96765	-575.22675				380.00864	988.56775	-612.09515	257.55225	560.38287	-426.12476	249.45522	1407.8667	-602.43701	122.36288	1316.7803	-620.03906	335.17337	1145.8937	-608.45581	179.9642	1378.3625	-777.3963	161.65125	1366.2175	-447.26648	295.83597	615.05621	-425.09805	306.20764	551.16913	-438.38962	280.08844	242.91875	-420.64081	330.0881	239.80852	-428.67548	298.83722	181.63956	-429.93436	284.69409	77.974976	-511.59836	306.65088	70.011848	-437.28998	343.9057	35.208687	-485.94614	146.38654	49.216064	-468.9447	175.15125	28.035288	-395.20441	149.53326	44.801105	-435.00897	318.37479	614.19324	-795.77106	279.42395	561.27039	-796.53119	328.07254	551.85248	-783.22333	297.81155	283.08383	-804.45624	316.77173	220.4166	-794.64478	346.82599	279.32669	-792.29535	315.22266	73.624741	-781.24811	275.64655	83.63015	-714.09332	349.91306	31.078775	-730.04108	180.28462	31.311098	-819.0144	152.1713	44.202583	-760.80219	159.31862	40.196621	-790.6886	278.04501	1222.5753	-319.3317	230.93259	1234.572	-307.53818	233.24199	1281.9882	-347.8707	219.61296	995.03241	-81.55172	376.74744	1043.9521	-1126.9623	318.35645	1024.3253	-1129.2975	324.7309	995.46106	-1191.0957	279.26215	1310.0675	-849.31836	297.49579	1268.4996	-891.58765	316.29926	1295.1719	-818.97015
2032	10.15	53.112827	1605.1995	-611.57263	69.56749	1586.4966	-551.37848	93.661858	1577.3949	-682.98669	242.40312	239.35907	-1727.8207	209.51331	251.34569	494.73618	389.08569	977.06445	-648.35486	383.00455	978.7876	-575.23663				378.98584	988.32727	-612.11176	257.2547	560.39349	-426.14886	251.25929	1408.2462	-602.55286	123.60569	1318.0942	-620.16931	335.07559	1145.7156	-608.46149	182.02444	1379.96	-777.02417	163.37131	1367.9227	-447.69449	295.61063	615.53442	-424.98618	305.87177	551.3244	-438.48108	280.32935	243.02202	-420.61932	330.29117	239.82832	-428.77133	298.93451	181.68248	-429.96619	284.69971	77.966949	-511.57135	306.66797	70.028297	-437.28537	343.89337	35.231613	-485.97897	146.38251	49.187351	-468.95215	175.15454	28.038929	-395.19427	149.55157	44.80632	-435.01834	317.52911	614.39856	-795.69318	278.89694	561.21661	-796.34473	327.64749	551.21497	-782.64618	297.84854	283.12027	-804.3584	316.77936	220.50349	-794.55341	346.86728	279.34232	-792.16467	315.2291	73.658249	-781.20508	275.71225	83.533829	-714.16022	349.88962	31.053734	-730.02899	180.27722	31.317741	-818.99994	152.17354	44.155407	-760.77588	159.34302	40.164803	-790.65045	278.80548	1225.5309	-317.89395	231.85803	1238.2904	-306.11978	234.34407	1285.2167	-346.88116	219.30626	1002.9945	-75.598846	376.77032	1050.1625	-1131.6411	318.2319	1031.2513	-1134.5885	324.71634	1003.223	-1196.886	280.93451	1312.0029	-849.38708	298.99353	1271.035	-892.34454	317.31702	1296.2061	-819.13873
